<?xml version="1.0" encoding="UTF-8" standalone="no"?>
<svg
   xmlns:dc="http://purl.org/dc/elements/1.1/"
   xmlns:cc="http://creativecommons.org/ns#"
   xmlns:rdf="http://www.w3.org/1999/02/22-rdf-syntax-ns#"
   xmlns:svg="http://www.w3.org/2000/svg"
   xmlns="http://www.w3.org/2000/svg"
   viewBox="0 0 335.22501 142.0125"
   height="142.0125"
   width="335.22501"
   xml:space="preserve"
   version="1.1"
   id="svg2"><metadata
     id="metadata8"><rdf:RDF><cc:Work
         rdf:about=""><dc:format>image/svg+xml</dc:format><dc:type
           rdf:resource="http://purl.org/dc/dcmitype/StillImage" /><dc:title></dc:title></cc:Work></rdf:RDF></metadata><defs
     id="defs6" /><g
     transform="matrix(1.25,0,0,-1.25,0,142.0125)"
     id="g10"><path
       d="m 31.9676,25.3059 57.1082,0 0,57.1152 -57.1082,0 0,-57.1152"
       style="fill:#e31927;fill-opacity:1;fill-rule:nonzero;stroke:none"
       id="path16" /><path
       d="m 79.5613,59.5773 -13.3277,0 0,13.3399 -11.4191,0 0,-13.3399 -13.3207,0 0,-11.4246 13.3207,0 0,-13.3132 11.4191,0 0,13.3132 13.3277,0 0,11.4246"
       style="fill:#ffffff;fill-opacity:1;fill-rule:nonzero;stroke:none"
       id="path18" /><path
       d="m 102.529,71.4387 2.177,0 c 0.973,0 1.761,0.2941 2.362,0.884 0.6,0.589 0.901,1.507 0.901,2.7539 0,1.2238 -0.261,2.1531 -0.782,2.7882 -0.521,0.6344 -1.394,0.9516 -2.618,0.9516 l -2.04,0 0,-7.3777 z m -4.8958,10.9816 8.5678,0 c 1.247,0 2.296,-0.2098 3.145,-0.6289 0.85,-0.4191 1.535,-0.9687 2.057,-1.6488 0.521,-0.6801 0.895,-1.4567 1.122,-2.3289 0.226,-0.8727 0.34,-1.7629 0.34,-2.6692 0,-1.2695 -0.187,-2.3629 -0.561,-3.2808 -0.374,-0.9184 -0.895,-1.6719 -1.564,-2.261 -0.669,-0.5898 -1.479,-1.032 -2.431,-1.3261 -0.952,-0.295 -2.006,-0.4422 -3.162,-0.4422 l -2.618,0 0,-9.6899 -4.8958,0 0,24.2758"
       style="fill:#231f20;fill-opacity:1;fill-rule:nonzero;stroke:none"
       id="path20" /><path
       d="m 120.174,71.8125 2.04,0 c 1.179,0 2.085,0.2773 2.721,0.8328 0.634,0.5555 0.951,1.4906 0.951,2.8055 0,2.2437 -1.134,3.3656 -3.399,3.3656 l -2.313,0 0,-7.0039 z m -4.895,10.6078 9.044,0 c 2.04,0 3.626,-0.5156 4.759,-1.5469 1.133,-1.0316 1.701,-2.6007 1.701,-4.7089 0,-1.6317 -0.329,-2.9637 -0.987,-3.995 -0.657,-1.0316 -1.677,-1.6949 -3.059,-1.9886 l 0,-0.0688 c 0.838,-0.1129 1.507,-0.3226 2.006,-0.6285 0.498,-0.3059 0.883,-0.7481 1.156,-1.3258 0.271,-0.5781 0.459,-1.309 0.56,-2.1933 0.103,-0.884 0.165,-1.9719 0.188,-3.2637 0.021,-1.2922 0.096,-2.2785 0.221,-2.9582 0.124,-0.6801 0.413,-1.1449 0.867,-1.3938 l 0,-0.2043 -5.365,0 c -0.253,0.3399 -0.413,0.7309 -0.482,1.1731 -0.069,0.4422 -0.114,0.9012 -0.138,1.3769 l -0.134,4.6582 c -0.044,0.952 -0.28,1.7 -0.705,2.2442 -0.426,0.5437 -1.143,0.8156 -2.15,0.8156 l -2.587,0 0,-10.268 -4.895,0 0,24.2758"
       style="fill:#231f20;fill-opacity:1;fill-rule:nonzero;stroke:none"
       id="path22" /><path
       d="m 141.084,88.7445 4.693,0 -3.332,-4.8957 -3.196,0 1.835,4.8957 z m 6.665,-6.3242 0,-4.0117 -8.67,0 0,-5.7121 8.16,0 0,-4.0117 -8.16,0 0,-6.5282 9.01,0 0,-4.0121 -13.906,0 0,24.2758 13.566,0"
       style="fill:#231f20;fill-opacity:1;fill-rule:nonzero;stroke:none"
       id="path24" /><path
       d="m 154.48,65.7266 0,-0.7137 c 0,-0.5672 0.046,-1.0832 0.137,-1.5477 0.09,-0.4648 0.259,-0.8554 0.509,-1.1726 0.249,-0.318 0.579,-0.5668 0.987,-0.7481 0.407,-0.1816 0.94,-0.2718 1.597,-0.2718 0.748,0 1.422,0.2429 2.024,0.7308 0.599,0.4871 0.9,1.241 0.9,2.2613 0,0.5438 -0.073,1.0141 -0.22,1.4106 -0.148,0.3965 -0.392,0.7531 -0.732,1.0711 -0.34,0.3172 -0.787,0.6062 -1.343,0.8672 -0.555,0.2605 -1.241,0.5269 -2.056,0.7988 -1.088,0.3625 -2.03,0.7594 -2.823,1.1902 -0.794,0.4301 -1.457,0.9348 -1.989,1.5129 -0.532,0.5778 -0.924,1.2461 -1.173,2.0059 -0.25,0.7594 -0.374,1.6375 -0.374,2.6348 0,2.4023 0.668,4.1933 2.006,5.3722 1.338,1.1781 3.174,1.768 5.508,1.768 1.089,0 2.092,-0.1192 3.01,-0.357 0.918,-0.2375 1.711,-0.6235 2.38,-1.1563 0.668,-0.5324 1.189,-1.2121 1.563,-2.0394 0.374,-0.8282 0.562,-1.8196 0.562,-2.975 l 0,-0.6801 -4.693,0 c 0,1.1562 -0.204,2.0453 -0.612,2.6687 -0.407,0.6231 -1.088,0.9352 -2.039,0.9352 -0.545,0 -0.998,-0.0797 -1.36,-0.2379 -0.364,-0.1594 -0.653,-0.3688 -0.868,-0.6293 -0.216,-0.2609 -0.362,-0.5606 -0.442,-0.9012 -0.079,-0.3394 -0.118,-0.6914 -0.118,-1.0535 0,-0.748 0.158,-1.3769 0.475,-1.8871 0.318,-0.5098 0.997,-0.9805 2.04,-1.4113 l 3.775,-1.6317 c 0.906,-0.4082 1.66,-0.8332 2.261,-1.275 0.6,-0.4418 1.076,-0.9179 1.427,-1.4281 0.352,-0.5098 0.595,-1.0707 0.732,-1.6832 0.135,-0.6117 0.204,-1.2922 0.204,-2.0395 0,-2.5621 -0.743,-4.4429 -2.228,-5.6441 -1.484,-1.2016 -3.552,-1.8023 -6.205,-1.8023 -2.765,0 -4.743,0.6171 -5.932,1.8531 -1.191,1.2355 -1.786,2.975 -1.786,5.2191 l 0,0.986 4.896,0"
       style="fill:#231f20;fill-opacity:1;fill-rule:nonzero;stroke:none"
       id="path26" /><path
       d="m 181.748,82.4203 0,-4.0117 -8.67,0 0,-5.7121 8.16,0 0,-4.0117 -8.16,0 0,-6.5282 9.01,0 0,-4.0121 -13.906,0 0,24.2758 13.566,0"
       style="fill:#231f20;fill-opacity:1;fill-rule:nonzero;stroke:none"
       id="path28" /><path
       d="m 190.179,82.4203 5.916,-16.6258 0.069,0 0,16.6258 4.488,0 0,-24.2758 -5.576,0 -5.985,17 -0.067,0 0,-17 -4.488,0 0,24.2758 5.643,0"
       style="fill:#231f20;fill-opacity:1;fill-rule:nonzero;stroke:none"
       id="path30" /><path
       d="m 214.421,74.2266 c 0,1.7679 -0.21,3.0543 -0.629,3.8589 -0.419,0.8043 -1.185,1.2071 -2.294,1.2071 -0.613,0 -1.118,-0.1645 -1.514,-0.4934 -0.397,-0.3285 -0.709,-0.8613 -0.935,-1.5976 -0.227,-0.7368 -0.385,-1.7 -0.476,-2.8899 -0.091,-1.1902 -0.136,-2.6465 -0.136,-4.3691 0,-1.836 0.062,-3.3211 0.187,-4.4539 0.125,-1.1336 0.317,-2.0121 0.578,-2.6352 0.26,-0.6234 0.589,-1.043 0.986,-1.2578 0.396,-0.2156 0.855,-0.323 1.377,-0.323 0.431,0 0.833,0.073 1.207,0.2211 0.374,0.1468 0.697,0.4417 0.969,0.8835 0.272,0.4422 0.487,1.0657 0.646,1.8704 0.158,0.8043 0.238,1.864 0.238,3.1793 l 4.896,0 c 0,-1.3153 -0.102,-2.5622 -0.306,-3.7403 -0.204,-1.1789 -0.584,-2.216 -1.139,-3.1109 -0.556,-0.8961 -1.337,-1.6039 -2.346,-2.125 -1.009,-0.5215 -2.317,-0.7824 -3.927,-0.7824 -1.836,0 -3.298,0.3121 -4.386,0.9351 -1.088,0.6231 -1.921,1.4903 -2.499,2.6012 -0.578,1.1101 -0.952,2.4418 -1.122,3.9949 -0.17,1.5524 -0.255,3.2469 -0.255,5.0832 0,1.836 0.085,3.5297 0.255,5.0828 0.17,1.5524 0.544,2.884 1.122,3.9949 0.578,1.1102 1.411,1.9774 2.499,2.6008 1.088,0.6231 2.55,0.9352 4.386,0.9352 1.745,0 3.122,-0.2836 4.131,-0.85 1.009,-0.5668 1.762,-1.2867 2.261,-2.1586 0.499,-0.8731 0.81,-1.8141 0.935,-2.8223 0.124,-1.009 0.187,-1.9551 0.187,-2.839 l -4.896,0"
       style="fill:#231f20;fill-opacity:1;fill-rule:nonzero;stroke:none"
       id="path32" /><path
       d="m 235.874,82.4203 0,-4.0117 -8.669,0 0,-5.7121 8.16,0 0,-4.0117 -8.16,0 0,-6.5282 9.01,0 0,-4.0121 -13.906,0 0,24.2758 13.565,0"
       style="fill:#231f20;fill-opacity:1;fill-rule:nonzero;stroke:none"
       id="path34" /><path
       d="m 101.577,32.927 0,-0.7141 c 0,-0.5668 0.046,-1.0828 0.136,-1.5473 0.09,-0.4648 0.26,-0.8554 0.51,-1.173 0.249,-0.318 0.578,-0.5668 0.986,-0.7481 0.408,-0.1816 0.941,-0.2718 1.598,-0.2718 0.748,0 1.422,0.2433 2.024,0.7308 0.599,0.4875 0.9,1.2414 0.9,2.2613 0,0.5442 -0.073,1.0141 -0.221,1.4106 -0.147,0.3965 -0.391,0.7535 -0.731,1.0715 -0.34,0.3168 -0.787,0.6058 -1.343,0.8672 -0.556,0.2601 -1.241,0.5269 -2.057,0.7988 -1.088,0.3621 -2.029,0.7594 -2.822,1.1898 -0.7937,0.4301 -1.457,0.9352 -1.989,1.5133 -0.5325,0.5778 -0.9239,1.2461 -1.1731,2.0059 -0.25,0.7594 -0.3738,1.6371 -0.3738,2.6347 0,2.4024 0.668,4.1934 2.0059,5.3719 1.338,1.1785 3.174,1.7684 5.508,1.7684 1.089,0 2.091,-0.1192 3.009,-0.3571 0.918,-0.2378 1.711,-0.6238 2.38,-1.1562 0.668,-0.5328 1.19,-1.2125 1.564,-2.0395 0.374,-0.8281 0.561,-1.8195 0.561,-2.9753 l 0,-0.6801 -4.692,0 c 0,1.1562 -0.204,2.0453 -0.612,2.6687 -0.408,0.6235 -1.088,0.9352 -2.039,0.9352 -0.545,0 -0.999,-0.0793 -1.361,-0.2375 -0.363,-0.1594 -0.652,-0.3688 -0.867,-0.6297 -0.216,-0.2606 -0.362,-0.5606 -0.442,-0.9008 -0.079,-0.3398 -0.119,-0.6914 -0.119,-1.0535 0,-0.7481 0.159,-1.377 0.476,-1.8875 0.317,-0.5098 0.997,-0.9805 2.04,-1.4109 l 3.774,-1.6321 c 0.907,-0.4082 1.661,-0.8328 2.261,-1.2746 0.601,-0.4422 1.076,-0.918 1.428,-1.4285 0.352,-0.5098 0.595,-1.0707 0.731,-1.6828 0.136,-0.6121 0.205,-1.2922 0.205,-2.0399 0,-2.5617 -0.744,-4.4425 -2.228,-5.6437 -1.484,-1.202 -3.553,-1.8023 -6.205,-1.8023 -2.766,0 -4.7431,0.6171 -5.9326,1.8531 -1.1906,1.2351 -1.7851,2.975 -1.7851,5.2191 l 0,0.986 4.8957,0"
       style="fill:#231f20;fill-opacity:1;fill-rule:nonzero;stroke:none"
       id="path36" /><path
       d="m 119.869,49.6207 0,-16.9316 c 0,-0.6125 0.039,-1.1735 0.119,-1.6832 0.079,-0.5102 0.226,-0.9524 0.441,-1.3262 0.216,-0.3738 0.505,-0.6688 0.867,-0.8836 0.363,-0.216 0.839,-0.3234 1.429,-0.3234 0.566,0 1.036,0.1074 1.41,0.3234 0.374,0.2148 0.669,0.5098 0.885,0.8836 0.215,0.3738 0.362,0.816 0.441,1.3262 0.08,0.5097 0.12,1.0707 0.12,1.6832 l 0,16.9316 4.896,0 0,-16.9316 c 0,-1.5422 -0.216,-2.8168 -0.646,-3.8254 -0.431,-1.0086 -1.009,-1.8078 -1.735,-2.3969 -0.725,-0.5898 -1.553,-1.0027 -2.481,-1.241 -0.93,-0.2379 -1.893,-0.357 -2.89,-0.357 -0.998,0 -1.961,0.1019 -2.891,0.3058 -0.929,0.2043 -1.756,0.5949 -2.481,1.1731 -0.727,0.5781 -1.304,1.3711 -1.734,2.38 -0.431,1.0082 -0.647,2.3289 -0.647,3.9614 l 0,16.9316 4.897,0"
       style="fill:#231f20;fill-opacity:1;fill-rule:nonzero;stroke:none"
       id="path38" /><path
       d="m 133.809,25.3449 0,24.2758 4.896,0 0,-24.2758 -4.896,0"
       style="fill:#231f20;fill-opacity:1;fill-rule:nonzero;stroke:none"
       id="path40" /><path
       d="m 146.286,32.927 0,-0.7141 c 0,-0.5668 0.046,-1.0828 0.136,-1.5473 0.09,-0.4648 0.26,-0.8554 0.51,-1.173 0.249,-0.318 0.578,-0.5668 0.986,-0.7481 0.408,-0.1816 0.941,-0.2718 1.598,-0.2718 0.748,0 1.422,0.2433 2.024,0.7308 0.599,0.4875 0.9,1.2414 0.9,2.2613 0,0.5442 -0.073,1.0141 -0.221,1.4106 -0.147,0.3965 -0.391,0.7535 -0.731,1.0715 -0.34,0.3168 -0.787,0.6058 -1.343,0.8672 -0.556,0.2601 -1.241,0.5269 -2.057,0.7988 -1.088,0.3621 -2.029,0.7594 -2.822,1.1898 -0.794,0.4301 -1.457,0.9352 -1.989,1.5133 -0.532,0.5778 -0.924,1.2461 -1.173,2.0059 -0.25,0.7594 -0.374,1.6371 -0.374,2.6347 0,2.4024 0.668,4.1934 2.006,5.3719 1.338,1.1785 3.174,1.7684 5.508,1.7684 1.088,0 2.091,-0.1192 3.009,-0.3571 0.918,-0.2378 1.711,-0.6238 2.38,-1.1562 0.668,-0.5328 1.19,-1.2125 1.564,-2.0395 0.374,-0.8281 0.561,-1.8195 0.561,-2.9753 l 0,-0.6801 -4.692,0 c 0,1.1562 -0.204,2.0453 -0.612,2.6687 -0.408,0.6235 -1.088,0.9352 -2.039,0.9352 -0.545,0 -0.999,-0.0793 -1.361,-0.2375 -0.363,-0.1594 -0.652,-0.3688 -0.867,-0.6297 -0.216,-0.2606 -0.362,-0.5606 -0.442,-0.9008 -0.08,-0.3398 -0.119,-0.6914 -0.119,-1.0535 0,-0.7481 0.159,-1.377 0.476,-1.8875 0.317,-0.5098 0.997,-0.9805 2.04,-1.4109 l 3.774,-1.6321 c 0.907,-0.4082 1.661,-0.8328 2.261,-1.2746 0.601,-0.4422 1.076,-0.918 1.428,-1.4285 0.352,-0.5098 0.595,-1.0707 0.731,-1.6828 0.136,-0.6121 0.204,-1.2922 0.204,-2.0399 0,-2.5617 -0.743,-4.4425 -2.227,-5.6437 -1.484,-1.202 -3.553,-1.8023 -6.205,-1.8023 -2.766,0 -4.743,0.6171 -5.933,1.8531 -1.19,1.2351 -1.785,2.975 -1.785,5.2191 l 0,0.986 4.896,0"
       style="fill:#231f20;fill-opacity:1;fill-rule:nonzero;stroke:none"
       id="path42" /><path
       d="m 163.931,32.927 0,-0.7141 c 0,-0.5668 0.046,-1.0828 0.137,-1.5473 0.09,-0.4648 0.26,-0.8554 0.51,-1.173 0.249,-0.318 0.578,-0.5668 0.986,-0.7481 0.407,-0.1816 0.94,-0.2718 1.598,-0.2718 0.748,0 1.421,0.2433 2.023,0.7308 0.6,0.4875 0.9,1.2414 0.9,2.2613 0,0.5442 -0.073,1.0141 -0.22,1.4106 -0.148,0.3965 -0.392,0.7535 -0.732,1.0715 -0.34,0.3168 -0.787,0.6058 -1.343,0.8672 -0.555,0.2601 -1.241,0.5269 -2.056,0.7988 -1.088,0.3621 -2.029,0.7594 -2.822,1.1898 -0.794,0.4301 -1.457,0.9352 -1.99,1.5133 -0.532,0.5778 -0.923,1.2461 -1.173,2.0059 -0.25,0.7594 -0.374,1.6371 -0.374,2.6347 0,2.4024 0.668,4.1934 2.006,5.3719 1.338,1.1785 3.174,1.7684 5.508,1.7684 1.089,0 2.092,-0.1192 3.01,-0.3571 0.918,-0.2378 1.711,-0.6238 2.38,-1.1562 0.668,-0.5328 1.189,-1.2125 1.563,-2.0395 0.374,-0.8281 0.562,-1.8195 0.562,-2.9753 l 0,-0.6801 -4.693,0 c 0,1.1562 -0.204,2.0453 -0.612,2.6687 -0.407,0.6235 -1.088,0.9352 -2.039,0.9352 -0.545,0 -0.998,-0.0793 -1.36,-0.2375 -0.364,-0.1594 -0.653,-0.3688 -0.868,-0.6297 -0.215,-0.2606 -0.362,-0.5606 -0.442,-0.9008 -0.079,-0.3398 -0.118,-0.6914 -0.118,-1.0535 0,-0.7481 0.158,-1.377 0.476,-1.8875 0.317,-0.5098 0.997,-0.9805 2.04,-1.4109 l 3.774,-1.6321 c 0.906,-0.4082 1.66,-0.8328 2.261,-1.2746 0.6,-0.4422 1.076,-0.918 1.427,-1.4285 0.352,-0.5098 0.595,-1.0707 0.732,-1.6828 0.136,-0.6121 0.204,-1.2922 0.204,-2.0399 0,-2.5617 -0.743,-4.4425 -2.228,-5.6437 -1.484,-1.202 -3.552,-1.8023 -6.205,-1.8023 -2.765,0 -4.743,0.6171 -5.932,1.8531 -1.191,1.2351 -1.785,2.975 -1.785,5.2191 l 0,0.986 4.895,0"
       style="fill:#231f20;fill-opacity:1;fill-rule:nonzero;stroke:none"
       id="path44" /><path
       d="m 191.199,49.6207 0,-4.0117 -8.67,0 0,-5.7125 8.16,0 0,-4.0117 -8.16,0 0,-6.5278 9.011,0 0,-4.0121 -13.907,0 0,24.2758 13.566,0"
       style="fill:#231f20;fill-opacity:1;fill-rule:nonzero;stroke:none"
       id="path46" /></g></svg>