<?xml version="1.0" encoding="UTF-8" standalone="no"?>
<!-- Created with Inkscape (http://www.inkscape.org/) -->

<svg
   xmlns:dc="http://purl.org/dc/elements/1.1/"
   xmlns:cc="http://creativecommons.org/ns#"
   xmlns:rdf="http://www.w3.org/1999/02/22-rdf-syntax-ns#"
   xmlns:svg="http://www.w3.org/2000/svg"
   xmlns="http://www.w3.org/2000/svg"
   xmlns:sodipodi="http://sodipodi.sourceforge.net/DTD/sodipodi-0.dtd"
   xmlns:inkscape="http://www.inkscape.org/namespaces/inkscape"
   width="92.296165mm"
   height="23.999966mm"
   viewBox="0 0 327.03366 85.039248"
   id="svg4641"
   version="1.1"
   inkscape:version="0.91 r13725"
   sodipodi:docname="roboclette-logo01.svg">
  <defs
     id="defs4643" />
  <sodipodi:namedview
     id="base"
     pagecolor="#ffffff"
     bordercolor="#666666"
     borderopacity="1.0"
     inkscape:pageopacity="0.0"
     inkscape:pageshadow="2"
     inkscape:zoom="1.35"
     inkscape:cx="10.291104"
     inkscape:cy="-41.19942"
     inkscape:document-units="px"
     inkscape:current-layer="layer1"
     showgrid="false"
     inkscape:window-width="2560"
     inkscape:window-height="1377"
     inkscape:window-x="0"
     inkscape:window-y="39"
     inkscape:window-maximized="1"
     fit-margin-top="0"
     fit-margin-left="0"
     fit-margin-right="0"
     fit-margin-bottom="0" />
  <metadata
     id="metadata4646">
    <rdf:RDF>
      <cc:Work
         rdf:about="">
        <dc:format>image/svg+xml</dc:format>
        <dc:type
           rdf:resource="http://purl.org/dc/dcmitype/StillImage" />
        <dc:title></dc:title>
      </cc:Work>
    </rdf:RDF>
  </metadata>
  <g
     inkscape:label="Layer 1"
     inkscape:groupmode="layer"
     id="layer1"
     transform="translate(-182.19746,-126.98544)">
    <g
       id="g5366">
      <g
         transform="matrix(1.25,0,0,-1.25,199.02949,153.28044)"
         id="g28">
        <path
           inkscape:connector-curvature="0"
           id="path30"
           style="fill:#e30613;fill-opacity:1;fill-rule:nonzero;stroke:none"
           d="m 0,0 c 1.565,0 2.839,-1.273 2.839,-2.839 0,-1.565 -1.274,-2.839 -2.839,-2.839 -1.565,0 -2.839,1.274 -2.839,2.839 C -2.839,-1.273 -1.565,0 0,0 m 28.052,0 c 1.565,0 2.839,-1.273 2.839,-2.839 0,-1.565 -1.274,-2.839 -2.839,-2.839 -1.566,0 -2.839,1.274 -2.839,2.839 0,1.566 1.273,2.839 2.839,2.839 m -38.244,-12.857 48.435,0 c 0.917,0 1.791,0.384 2.411,1.059 0.62,0.675 0.929,1.579 0.851,2.492 -0.584,6.862 -3.7,13.222 -8.775,17.909 -4.704,4.345 -10.712,6.885 -17.067,7.259 l 0,3.537 c 0,0.904 -0.733,1.637 -1.637,1.637 -0.904,0 -1.637,-0.733 -1.637,-1.637 l 0,-3.537 C 6.034,15.488 0.026,12.948 -4.678,8.603 -9.753,3.916 -12.87,-2.444 -13.454,-9.306 c -0.077,-0.913 0.231,-1.817 0.851,-2.492 0.621,-0.675 1.495,-1.059 2.411,-1.059" />
      </g>
      <g
         transform="matrix(1.25,0,0,-1.25,204.60139,182.36969)"
         id="g32">
        <path
           inkscape:connector-curvature="0"
           id="path34"
           style="fill:#f9b233;fill-opacity:1;fill-rule:nonzero;stroke:none"
           d="m 0,0 c -1.42,-0.021 -1.632,-0.881 -1.632,-1.394 l 0,-2.25 c 0,-0.547 -0.445,-0.992 -0.991,-0.992 -0.547,0 -0.991,0.445 -0.991,0.992 l 0,2.054 c 0,0.722 -0.139,1.458 -1.168,1.458 -0.694,0 -1.107,-0.442 -1.107,-1.186 l 0,-5.037 c 0,-0.494 -0.211,-0.965 -0.576,-1.297 -0.37,-0.334 -0.821,-0.491 -1.354,-0.445 -0.878,0.089 -1.566,0.903 -1.566,1.852 l 0,4.787 c 0,0.709 -0.134,1.437 -1.134,1.458 l -4.529,0 2.448,4.105 c 0.173,0.289 0.49,0.469 0.827,0.469 l 42.684,0 c 0.337,0 0.652,-0.18 0.824,-0.469 L 34.186,0 0,0 Z m 37.059,-1.846 c -0.002,0.182 -0.023,0.363 -0.055,0.542 -0.011,0.064 -0.025,0.127 -0.039,0.19 -0.034,0.14 -0.077,0.279 -0.129,0.415 -0.022,0.057 -0.043,0.113 -0.068,0.168 -0.051,0.114 -0.106,0.227 -0.17,0.335 L 33.7,4.665 c -0.591,0.99 -1.659,1.597 -2.812,1.597 l -13.764,0 -0.955,0 -27.92,0 c -1.153,0 -2.222,-0.607 -2.812,-1.597 l -2.898,-4.861 c -0.004,-0.008 -0.008,-0.016 -0.012,-0.024 -0.012,-0.019 -0.02,-0.04 -0.031,-0.06 -0.091,-0.163 -0.164,-0.331 -0.225,-0.503 -0.014,-0.04 -0.029,-0.079 -0.042,-0.12 -0.059,-0.189 -0.101,-0.382 -0.125,-0.577 -0.004,-0.037 -0.005,-0.073 -0.008,-0.109 -0.016,-0.185 -0.017,-0.371 -0.002,-0.557 0.002,-0.02 -0.002,-0.039 0,-0.058 10e-4,-0.015 0.004,-0.03 0.006,-0.045 10e-4,-0.011 0.003,-0.023 0.004,-0.035 0.627,-5.925 3.813,-11.382 8.98,-15.371 5.071,-3.914 11.635,-6.069 18.484,-6.069 6.85,0 13.414,2.155 18.484,6.069 5.152,3.977 8.336,9.411 8.976,15.315 0.003,0.018 0.002,0.038 0.004,0.056 0.007,0.053 0.008,0.106 0.011,0.159 0.007,0.084 0.019,0.167 0.019,0.252 0,0.01 -0.003,0.018 -0.003,0.027" />
      </g>
      <g
         transform="matrix(1.25,0,0,-1.25,299.92059,171.9987)"
         id="g36">
        <path
           inkscape:connector-curvature="0"
           id="path38"
           style="fill:#1d1d1b;fill-opacity:1;fill-rule:nonzero;stroke:none"
           d="M 0,0 C 2.816,0 4.141,1.292 4.141,3.146 4.141,5.001 2.816,6.293 0,6.293 l -5.796,0 L -5.796,0 0,0 Z m -10.765,10.931 10.931,0 c 5.664,0 9.109,-3.478 9.109,-7.785 0,-3.61 -2.319,-5.995 -5.3,-7.121 l 5.3,-8.281 -5.631,0 -4.803,7.618 -4.637,0 0,-7.618 -4.969,0 0,23.187 z" />
      </g>
      <g
         transform="matrix(1.25,0,0,-1.25,324.65259,182.97157)"
         id="g40">
        <path
           inkscape:connector-curvature="0"
           id="path42"
           style="fill:#1d1d1b;fill-opacity:1;fill-rule:nonzero;stroke:none"
           d="M 0,0 C 2.484,0 4.472,1.987 4.472,4.969 4.472,7.95 2.484,9.938 0,9.938 -2.484,9.938 -4.472,7.95 -4.472,4.969 -4.472,1.987 -2.484,0 0,0 m 0,13.912 c 5.267,0 9.274,-3.974 9.274,-8.943 C 9.274,0 5.267,-3.975 0,-3.975 c -5.333,0 -9.275,3.975 -9.275,8.944 0,4.969 3.942,8.943 9.275,8.943" />
      </g>
      <g
         transform="matrix(1.25,0,0,-1.25,350.22149,182.97157)"
         id="g44">
        <path
           inkscape:connector-curvature="0"
           id="path46"
           style="fill:#1d1d1b;fill-opacity:1;fill-rule:nonzero;stroke:none"
           d="M 0,0 C 2.352,0 4.141,1.789 4.141,4.969 4.141,8.149 2.352,9.938 0,9.938 -2.518,9.938 -4.306,8.149 -4.306,4.969 -4.306,1.789 -2.518,0 0,0 m -8.943,19.709 4.637,0 0,-8.447 0.165,0 c 0.365,0.497 0.795,0.928 1.292,1.325 0.894,0.663 2.153,1.325 4.008,1.325 4.306,0 7.784,-3.478 7.784,-8.943 0,-5.466 -3.478,-8.944 -7.784,-8.944 -1.855,0 -3.114,0.663 -4.008,1.326 -0.497,0.397 -0.927,0.827 -1.292,1.324 l -0.165,0 0,-2.153 -4.637,0 0,23.187 z" />
      </g>
      <g
         transform="matrix(1.25,0,0,-1.25,374.7515,182.97157)"
         id="g48">
        <path
           inkscape:connector-curvature="0"
           id="path50"
           style="fill:#1d1d1b;fill-opacity:1;fill-rule:nonzero;stroke:none"
           d="M 0,0 C 2.484,0 4.472,1.987 4.472,4.969 4.472,7.95 2.484,9.938 0,9.938 -2.484,9.938 -4.472,7.95 -4.472,4.969 -4.472,1.987 -2.484,0 0,0 m 0,13.912 c 5.267,0 9.275,-3.974 9.275,-8.943 C 9.275,0 5.267,-3.975 0,-3.975 c -5.333,0 -9.274,3.975 -9.274,8.944 0,4.969 3.941,8.943 9.274,8.943" />
      </g>
      <g
         transform="matrix(1.25,0,0,-1.25,399.28525,165.58145)"
         id="g52">
        <path
           inkscape:connector-curvature="0"
           id="path54"
           style="fill:#1d1d1b;fill-opacity:1;fill-rule:nonzero;stroke:none"
           d="m 0,0 c 3.611,0 5.797,-1.623 7.022,-3.312 0.729,-0.961 1.259,-2.087 1.59,-3.313 l -4.802,0 C 3.611,-6.128 3.346,-5.697 3.015,-5.3 2.385,-4.637 1.491,-3.975 0,-3.975 c -2.286,0 -4.306,-1.987 -4.306,-4.968 0,-2.982 2.02,-4.969 4.306,-4.969 1.491,0 2.385,0.662 3.015,1.325 0.331,0.398 0.596,0.828 0.795,1.325 l 4.802,0 C 8.314,-12.488 7.817,-13.614 7.088,-14.575 5.863,-16.264 3.71,-17.887 0,-17.887 c -5.167,0 -9.109,3.975 -9.109,8.944 C -9.109,-3.975 -5.167,0 0,0" />
      </g>
      <g
         transform="matrix(1.25,0,0,-1.25,412.82587,158.33532)"
         id="g56">
        <path
           inkscape:connector-curvature="0"
           id="path58"
           style="fill:#1d1d1b;fill-opacity:1;fill-rule:nonzero;stroke:none"
           d="m 0,0 4.638,0 0,-19.212 3.809,0 0,-3.975 -8.447,0 L 0,0 Z" />
      </g>
      <g
         transform="matrix(1.25,0,0,-1.25,440.38087,174.48344)"
         id="g60">
        <path
           inkscape:connector-curvature="0"
           id="path62"
           style="fill:#1d1d1b;fill-opacity:1;fill-rule:nonzero;stroke:none"
           d="M 0,0 C -0.332,1.656 -1.822,3.147 -3.975,3.147 -6.128,3.147 -7.619,1.689 -8.116,0 L 0,0 Z m -3.975,7.122 c 5.3,0 8.943,-4.008 8.943,-8.944 l 0,-0.993 -13.249,0 c 0.364,-2.153 2.153,-3.976 4.306,-3.976 1.491,0 2.385,0.498 3.014,0.995 0.331,0.297 0.596,0.629 0.795,0.993 l 4.969,0 C 4.438,-5.896 3.908,-6.89 3.146,-7.784 c -1.324,-1.491 -3.478,-2.981 -7.121,-2.981 -5.168,0 -9.109,3.974 -9.109,8.943 0,4.969 3.941,8.944 9.109,8.944" />
      </g>
      <g
         transform="matrix(1.25,0,0,-1.25,447.561,166.20219)"
         id="g64">
        <path
           inkscape:connector-curvature="0"
           id="path66"
           style="fill:#1d1d1b;fill-opacity:1;fill-rule:nonzero;stroke:none"
           d="m 0,0 2.153,0 0,3.644 4.638,0 0,-3.644 4.77,0 0,-3.975 -4.77,0 0,-8.943 4.968,0 0,-3.976 -9.606,0 0,12.919 L 0,-3.975 0,0 Z" />
      </g>
      <g
         transform="matrix(1.25,0,0,-1.25,463.44299,166.20219)"
         id="g68">
        <path
           inkscape:connector-curvature="0"
           id="path70"
           style="fill:#1d1d1b;fill-opacity:1;fill-rule:nonzero;stroke:none"
           d="m 0,0 2.153,0 0,3.644 4.637,0 0,-3.644 4.77,0 0,-3.975 -4.77,0 0,-8.943 4.969,0 0,-3.976 -9.606,0 0,12.919 L 0,-3.975 0,0 Z" />
      </g>
      <g
         transform="matrix(1.25,0,0,-1.25,495.64575,174.48344)"
         id="g72">
        <path
           inkscape:connector-curvature="0"
           id="path74"
           style="fill:#1d1d1b;fill-opacity:1;fill-rule:nonzero;stroke:none"
           d="M 0,0 C -0.331,1.656 -1.822,3.147 -3.975,3.147 -6.127,3.147 -7.619,1.689 -8.115,0 L 0,0 Z m -3.975,7.122 c 5.3,0 8.944,-4.008 8.944,-8.944 l 0,-0.993 -13.25,0 c 0.364,-2.153 2.154,-3.976 4.306,-3.976 1.491,0 2.385,0.498 3.015,0.995 0.331,0.297 0.596,0.629 0.794,0.993 l 4.969,0 C 4.438,-5.896 3.909,-6.89 3.147,-7.784 c -1.325,-1.491 -3.478,-2.981 -7.122,-2.981 -5.167,0 -9.109,3.974 -9.109,8.943 0,4.969 3.942,8.944 9.109,8.944" />
      </g>
      <g
         transform="matrix(1.25,0,0,-1.25,505.78362,164.41507)"
         id="g76">
        <path
           inkscape:connector-curvature="0"
           id="path78"
           style="fill:#1d1d1b;fill-opacity:1;fill-rule:nonzero;stroke:none"
           d="M 0,0 C 0.276,0 0.452,0.11 0.452,0.331 0.452,0.552 0.276,0.662 0,0.662 l -0.552,0 L -0.552,0 0,0 Z m -1.269,1.324 1.269,0 c 0.783,0 1.158,-0.375 1.158,-0.993 0,-0.309 -0.143,-0.508 -0.275,-0.64 C 0.805,-0.386 0.706,-0.453 0.607,-0.497 l 0.606,-0.882 -0.772,0 -0.552,0.772 -0.441,0 0,-0.772 -0.717,0 0,2.703 z m 1.103,-3.641 c 1.27,0 2.207,0.938 2.207,2.207 0,1.268 -0.937,2.206 -2.207,2.206 -1.269,0 -2.206,-0.938 -2.206,-2.206 0,-1.269 0.937,-2.207 2.206,-2.207 m 0,5.075 c 1.644,0 2.924,-1.269 2.924,-2.868 0,-1.6 -1.28,-2.869 -2.924,-2.869 -1.644,0 -2.923,1.269 -2.923,2.869 0,1.599 1.279,2.868 2.923,2.868" />
      </g>
    </g>
  </g>
</svg>
