<?xml version="1.0" encoding="UTF-8" standalone="no"?>
<!-- Created with Inkscape (http://www.inkscape.org/) -->

<svg
   width="19.397537mm"
   height="23.999954mm"
   viewBox="0 0 19.397537 23.999954"
   version="1.1"
   id="svg380"
   inkscape:version="1.2.1 (8a69933317, 2022-10-28, custom)"
   sodipodi:docname="roboclette-square.svg"
   xmlns:inkscape="http://www.inkscape.org/namespaces/inkscape"
   xmlns:sodipodi="http://sodipodi.sourceforge.net/DTD/sodipodi-0.dtd"
   xmlns="http://www.w3.org/2000/svg"
   xmlns:svg="http://www.w3.org/2000/svg">
  <sodipodi:namedview
     id="namedview382"
     pagecolor="#ffffff"
     bordercolor="#666666"
     borderopacity="1.0"
     inkscape:showpageshadow="2"
     inkscape:pageopacity="0.0"
     inkscape:pagecheckerboard="0"
     inkscape:deskcolor="#d1d1d1"
     inkscape:document-units="mm"
     showgrid="false"
     inkscape:zoom="0.914906"
     inkscape:cx="396.76207"
     inkscape:cy="562.35285"
     inkscape:window-width="1850"
     inkscape:window-height="1016"
     inkscape:window-x="0"
     inkscape:window-y="0"
     inkscape:window-maximized="1"
     inkscape:current-layer="layer1" />
  <defs
     id="defs377" />
  <g
     inkscape:label="Layer 1"
     inkscape:groupmode="layer"
     id="layer1"
     transform="translate(-51.320703,-147.34472)">
    <g
       transform="matrix(0.35277779,0,0,-0.35277779,56.071079,154.76575)"
       id="g28">
      <path
         inkscape:connector-curvature="0"
         id="path30"
         style="fill:#e30613;fill-opacity:1;fill-rule:nonzero;stroke:none"
         d="m 0,0 c 1.565,0 2.839,-1.273 2.839,-2.839 0,-1.565 -1.274,-2.839 -2.839,-2.839 -1.565,0 -2.839,1.274 -2.839,2.839 C -2.839,-1.273 -1.565,0 0,0 m 28.052,0 c 1.565,0 2.839,-1.273 2.839,-2.839 0,-1.565 -1.274,-2.839 -2.839,-2.839 -1.566,0 -2.839,1.274 -2.839,2.839 0,1.566 1.273,2.839 2.839,2.839 m -38.244,-12.857 h 48.435 c 0.917,0 1.791,0.384 2.411,1.059 0.62,0.675 0.929,1.579 0.851,2.492 -0.584,6.862 -3.7,13.222 -8.775,17.909 -4.704,4.345 -10.712,6.885 -17.067,7.259 v 3.537 c 0,0.904 -0.733,1.637 -1.637,1.637 -0.904,0 -1.637,-0.733 -1.637,-1.637 V 15.862 C 6.034,15.488 0.026,12.948 -4.678,8.603 -9.753,3.916 -12.87,-2.444 -13.454,-9.306 c -0.077,-0.913 0.231,-1.817 0.851,-2.492 0.621,-0.675 1.495,-1.059 2.411,-1.059" />
    </g>
    <g
       transform="matrix(0.35277779,0,0,-0.35277779,57.643593,162.97538)"
       id="g32">
      <path
         inkscape:connector-curvature="0"
         id="path34"
         style="fill:#f9b233;fill-opacity:1;fill-rule:nonzero;stroke:none"
         d="m 0,0 c -1.42,-0.021 -1.632,-0.881 -1.632,-1.394 v -2.25 c 0,-0.547 -0.445,-0.992 -0.991,-0.992 -0.547,0 -0.991,0.445 -0.991,0.992 v 2.054 c 0,0.722 -0.139,1.458 -1.168,1.458 -0.694,0 -1.107,-0.442 -1.107,-1.186 v -5.037 c 0,-0.494 -0.211,-0.965 -0.576,-1.297 -0.37,-0.334 -0.821,-0.491 -1.354,-0.445 -0.878,0.089 -1.566,0.903 -1.566,1.852 v 4.787 c 0,0.709 -0.134,1.437 -1.134,1.458 h -4.529 l 2.448,4.105 c 0.173,0.289 0.49,0.469 0.827,0.469 h 42.684 c 0.337,0 0.652,-0.18 0.824,-0.469 L 34.186,0 Z m 37.059,-1.846 c -0.002,0.182 -0.023,0.363 -0.055,0.542 -0.011,0.064 -0.025,0.127 -0.039,0.19 -0.034,0.14 -0.077,0.279 -0.129,0.415 -0.022,0.057 -0.043,0.113 -0.068,0.168 -0.051,0.114 -0.106,0.227 -0.17,0.335 L 33.7,4.665 c -0.591,0.99 -1.659,1.597 -2.812,1.597 h -13.764 -0.955 -27.92 c -1.153,0 -2.222,-0.607 -2.812,-1.597 l -2.898,-4.861 c -0.004,-0.008 -0.008,-0.016 -0.012,-0.024 -0.012,-0.019 -0.02,-0.04 -0.031,-0.06 -0.091,-0.163 -0.164,-0.331 -0.225,-0.503 -0.014,-0.04 -0.029,-0.079 -0.042,-0.12 -0.059,-0.189 -0.101,-0.382 -0.125,-0.577 -0.004,-0.037 -0.005,-0.073 -0.008,-0.109 -0.016,-0.185 -0.017,-0.371 -0.002,-0.557 0.002,-0.02 -0.002,-0.039 0,-0.058 10e-4,-0.015 0.004,-0.03 0.006,-0.045 10e-4,-0.011 0.003,-0.023 0.004,-0.035 0.627,-5.925 3.813,-11.382 8.98,-15.371 5.071,-3.914 11.635,-6.069 18.484,-6.069 6.85,0 13.414,2.155 18.484,6.069 5.152,3.977 8.336,9.411 8.976,15.315 0.003,0.018 0.002,0.038 0.004,0.056 0.007,0.053 0.008,0.106 0.011,0.159 0.007,0.084 0.019,0.167 0.019,0.252 0,0.01 -0.003,0.018 -0.003,0.027" />
    </g>
  </g>
</svg>
